<svg xmlns="http://www.w3.org/2000/svg" viewBox="0 0 1299.26 170.41"><defs><style>.cls-1{fill:#00b284;}.cls-2{fill:#353a4c;}</style></defs><g id="Livello_2" data-name="Livello 2"><g id="Livello_1-2" data-name="Livello 1"><path class="cls-1" d="M77.08,0V16.25a68.78,68.78,0,0,1,68.49,77.54A69,69,0,0,0,77.08,32.56V48.89A52.64,52.64,0,0,1,79.79,154.1c-.9,0-1.8.07-2.71.07a44.52,44.52,0,0,1,0-89V48.89a60.84,60.84,0,0,0-60.23,52.9A60.72,60.72,0,0,1,77.08,32.56V16.25a77.08,77.08,0,0,0,0,154.16c1.19,0,2.37,0,3.55-.09A85.19,85.19,0,0,0,77.08,0Z"/><path class="cls-2" d="M310,87.92c0,27.35-21.8,48.88-49.29,48.88s-49.28-21.53-49.28-48.88S233.19,39,260.67,39,310,60.57,310,87.92Zm-14.89,0c0-20.45-15.17-35.34-34.4-35.34s-34.52,14.89-34.52,35.34,15.3,35.34,34.52,35.34S295.07,108.36,295.07,87.92Z"/><path class="cls-2" d="M391.6,117.16l31.28-76.63h15l-39.68,95.05H384.42L344.75,40.53h15.57Z"/><path class="cls-2" d="M479.87,135.31V40.53h67.57v13H494.09V81.15h50V94h-50v28.3H548v13Z"/><path class="cls-2" d="M609.44,135.31H595.23V40.53h42.1c22.21,0,34.4,12,34.4,30.19,0,15.57-9.62,27-26.27,29.93l26.94,34.66H656.15l-26.4-33.85H609.44ZM635.57,88.6c14.09,0,21.53-6.23,21.53-17.61s-7.31-17.46-21.53-17.46H609.44V88.6Z"/><path class="cls-2" d="M732.38,135.31H718.16V40.53h42.11c22.2,0,34.39,12,34.39,30.19,0,15.57-9.61,27-26.27,29.93l27,34.66H779.09l-26.4-33.85H732.38ZM758.51,88.6C772.59,88.6,780,82.37,780,71s-7.31-17.46-21.53-17.46H732.38V88.6Z"/><path class="cls-2" d="M841.1,135.31V40.53h67.56v13H855.31V81.15h50V94h-50v28.3H909.2v13Z"/><path class="cls-2" d="M1018.73,111.61H972.29l-10,23.7H947.78l41.57-95.05h12.73l41.43,95.05h-14.62ZM977.84,98.48h35.34l-17.6-41.7Z"/><path class="cls-2" d="M1127.45,39c23.29,0,41.84,13.94,45.5,34.12h-14.9c-3-11.65-13.81-20.58-30.46-20.58-20.32,0-34.94,14.76-34.94,35.34s14.62,35.34,34.94,35.34c16.65,0,27.48-8.94,30.6-20.72h14.89c-3.65,20.31-22.2,34.26-45.63,34.26-28.3,0-49.56-21.53-49.56-48.88S1099.15,39,1127.45,39Z"/><path class="cls-2" d="M1285.05,80.88V40.53h14.21v94.78h-14.21v-41h-51.86v41H1219V40.53h14.22V80.88Z"/></g></g></svg>