<svg xmlns="http://www.w3.org/2000/svg" viewBox="0 0 162.38 170.41"><defs><style>.cls-1{fill:#00b284;}</style></defs><g id="Livello_2" data-name="Livello 2"><g id="Livello_1-2" data-name="Livello 1"><path class="cls-1" d="M77.08,0V16.25a68.78,68.78,0,0,1,68.49,77.54A69,69,0,0,0,77.08,32.56V48.89A52.64,52.64,0,0,1,79.79,154.1c-.9,0-1.8.07-2.71.07a44.52,44.52,0,0,1,0-89V48.89a60.84,60.84,0,0,0-60.23,52.9A60.72,60.72,0,0,1,77.08,32.56V16.25a77.08,77.08,0,0,0,0,154.16c1.19,0,2.37,0,3.55-.09A85.19,85.19,0,0,0,77.08,0Z"/></g></g></svg>